<?xml version="1.0" encoding="UTF-8"?>
<svg id="Ebene_2" data-name="Ebene 2" xmlns="http://www.w3.org/2000/svg" xmlns:xlink="http://www.w3.org/1999/xlink" viewBox="0 0 500 300">
  <defs>
    <style>
      .cls-1, .cls-2 {
        fill: #fff;
      }

      .cls-3 {
        letter-spacing: -.02em;
      }

      .cls-4 {
        letter-spacing: 0em;
      }

      .cls-5 {
        filter: url(#drop-shadow-1);
      }

      .cls-6 {
        letter-spacing: .02em;
      }

      .cls-7 {
        letter-spacing: -.06em;
      }

      .cls-8 {
        letter-spacing: -.01em;
      }

      .cls-9 {
        font-family: InterTight-SemiBold, 'Inter Tight';
      }

      .cls-10 {
        letter-spacing: -.04em;
      }

      .cls-11 {
        letter-spacing: -.02em;
      }

      .cls-12 {
        font-size: 12px;
      }

      .cls-2 {
        font-size: 24px;
      }

      .cls-13 {
        fill: #43c979;
      }

      .cls-14 {
        letter-spacing: -.02em;
      }

      .cls-15 {
        letter-spacing: -.01em;
      }

      .cls-16 {
        letter-spacing: -.02em;
      }

      .cls-17 {
        letter-spacing: -.1em;
      }

      .cls-18 {
        letter-spacing: .01em;
      }
    </style>
    <filter id="drop-shadow-1" filterUnits="userSpaceOnUse">
      <feOffset dx="-3" dy="3"/>
      <feGaussianBlur result="blur" stdDeviation="3"/>
      <feFlood flood-color="#000" flood-opacity=".2"/>
      <feComposite in2="blur" operator="in"/>
      <feComposite in="SourceGraphic"/>
    </filter>
  </defs>
  <g id="Ebene_3" data-name="Ebene 3">
    <g class="cls-5">
      <rect class="cls-13" width="500" height="300" rx="24" ry="24"/>
      <text class="cls-9" transform="translate(192.33 184.92)"><tspan class="cls-2"><tspan x="0" y="0">Bloc</tspan><tspan class="cls-3" x="46.91" y="0">k</tspan><tspan x="59.12" y="0">chain</tspan></tspan><tspan class="cls-12"><tspan x="-112.2" y="14.4">The bloc</tspan><tspan class="cls-3" x="-65.6" y="14.4">k</tspan><tspan x="-59.49" y="14.4">chain-</tspan><tspan class="cls-4" x="-24.9" y="14.4">t</tspan><tspan x="-20.85" y="14.4">echnology of</tspan><tspan class="cls-16" x="49.44" y="14.4">f</tspan><tspan x="53.29" y="14.4">ers security li</tspan><tspan class="cls-3" x="124.48" y="14.4">k</tspan><tspan x="130.58" y="14.4">e no model be</tspan><tspan class="cls-16" x="205.75" y="14.4">f</tspan><tspan x="209.6" y="14.4">o</tspan><tspan class="cls-3" x="216.45" y="14.4">r</tspan><tspan x="220.49" y="14.4">e</tspan><tspan class="cls-3" x="227.13" y="14.4">.</tspan></tspan><tspan class="cls-12"><tspan x="-123.05" y="28.8">Wi</tspan><tspan class="cls-18" x="-108.71" y="28.8">t</tspan><tspan x="-104.46" y="28.8">h </tspan><tspan class="cls-18" x="-95" y="28.8">t</tspan><tspan x="-90.75" y="28.8">he decent</tspan><tspan class="cls-8" x="-36.86" y="28.8">r</tspan><tspan x="-32.67" y="28.8">alization of </tspan><tspan class="cls-18" x="28.46" y="28.8">t</tspan><tspan x="32.71" y="28.8">he p</tspan><tspan class="cls-15" x="55.84" y="28.8">ow</tspan><tspan x="71.93" y="28.8">e</tspan><tspan class="cls-7" x="78.57" y="28.8">r</tspan><tspan class="cls-3" x="82.13" y="28.8">,</tspan><tspan x="85.42" y="28.8" xml:space="preserve"> i</tspan><tspan class="cls-10" x="90.63" y="28.8">t</tspan><tspan x="94.27" y="28.8">‘s impossible </tspan><tspan class="cls-16" x="167.23" y="28.8">f</tspan><tspan x="171.08" y="28.8">or one entity </tspan></tspan><tspan class="cls-12"><tspan class="cls-4" x="-152.1" y="43.2">t</tspan><tspan x="-148.05" y="43.2">o manipula</tspan><tspan class="cls-4" x="-89.25" y="43.2">t</tspan><tspan x="-85.2" y="43.2">e </tspan><tspan class="cls-18" x="-76.03" y="43.2">t</tspan><tspan x="-71.79" y="43.2">he bloc</tspan><tspan class="cls-3" x="-32.65" y="43.2">k</tspan><tspan x="-26.54" y="43.2">chain</tspan><tspan class="cls-3" x="2.92" y="43.2">.</tspan><tspan x="6.04" y="43.2"> </tspan><tspan class="cls-17" x="8.57" y="43.2">Y</tspan><tspan x="15.37" y="43.2">ou h</tspan><tspan class="cls-11" x="38.52" y="43.2">a</tspan><tspan class="cls-14" x="44.76" y="43.2">v</tspan><tspan x="51" y="43.2">e only one identity and </tspan><tspan class="cls-18" x="174.53" y="43.2">t</tspan><tspan x="178.78" y="43.2">ha</tspan><tspan class="cls-10" x="192.18" y="43.2">t</tspan><tspan x="195.82" y="43.2">‘s </tspan><tspan class="cls-14" x="208.06" y="43.2">y</tspan><tspan x="214.3" y="43.2">our wallet</tspan><tspan class="cls-3" x="267.03" y="43.2">.</tspan></tspan><tspan class="cls-12"><tspan x="-15.87" y="57.6">Enc</tspan><tspan class="cls-6" x="4.34" y="57.6">r</tspan><tspan x="8.85" y="57.6">yp</tspan><tspan class="cls-4" x="22.35" y="57.6">t</tspan><tspan x="26.4" y="57.6">ed</tspan><tspan class="cls-3" x="40.07" y="57.6">,</tspan><tspan x="43.36" y="57.6" xml:space="preserve"> simple and f</tspan><tspan class="cls-3" x="110.95" y="57.6">r</tspan><tspan x="114.99" y="57.6">ee</tspan><tspan class="cls-3" x="128.27" y="57.6">.</tspan><tspan x="131.38" y="57.6"> </tspan></tspan></text>
      <path class="cls-1" d="M249.99,52.84c-5.67,0-10.26,4.6-10.26,10.26v6.16h20.52v-6.16c0-5.67-4.6-10.26-10.26-10.26Zm54.35-9l-49.07-22.67c-3.34-1.55-7.21-1.55-10.55,0l-49.07,22.67c-1.91,.87-3.11,2.8-3.11,4.9s1.21,3.99,3.11,4.88l33.84,15.64h2.03v-6.16c0-10.19,8.27-18.47,18.47-18.47s18.47,8.27,18.47,18.47v6.16h2.03l33.84-15.64c1.91-.87,3.13-2.78,3.13-4.88s-1.22-4.02-3.13-4.9Zm-54.35,9c-5.67,0-10.26,4.6-10.26,10.26v6.16h20.52v-6.16c0-5.67-4.6-10.26-10.26-10.26Zm-42.41,14.2l-11.94,5.53c-1.91,.87-3.11,2.8-3.11,4.9s1.21,4,3.11,4.9l25.62,11.83v-16.72c0-1.32,.31-2.57,.88-3.69l-14.56-6.73Zm96.75,5.53l-11.94-5.53-14.56,6.73c.57,1.11,.88,2.37,.88,3.69v16.72l25.62-11.83c1.91-.88,3.13-2.79,3.13-4.9s-1.22-4.02-3.13-4.9Zm0,28.73l-11.94-5.52-13.68,6.31h0c-.01,4.54-3.68,8.21-8.21,8.21h-9.55l-2.69,1.24c-5.25,2.42-11.32,2.42-16.57,0l-2.69-1.24h-9.55c-4.53,0-8.19-3.67-8.21-8.19h0s-13.68-6.32-13.68-6.32l-11.94,5.52c-1.91,.87-3.11,2.8-3.11,4.9s1.21,4,3.11,4.9l49.07,22.67c3.34,1.55,7.21,1.55,10.55,0l49.07-22.67c1.91-.87,3.13-2.78,3.13-4.9s-1.22-4.02-3.13-4.9Z"/>
    </g>
  </g>
</svg>