<?xml version="1.0" encoding="UTF-8"?>
<svg id="Ebene_2" data-name="Ebene 2" xmlns="http://www.w3.org/2000/svg" xmlns:xlink="http://www.w3.org/1999/xlink" viewBox="0 0 500 300">
  <defs>
    <style>
      .cls-1, .cls-2 {
        fill: #fff;
      }

      .cls-3 {
        letter-spacing: -.02em;
      }

      .cls-4 {
        letter-spacing: -.06em;
      }

      .cls-5 {
        letter-spacing: 0em;
      }

      .cls-6 {
        filter: url(#drop-shadow-1);
      }

      .cls-7 {
        letter-spacing: .02em;
      }

      .cls-8 {
        fill: #f33;
      }

      .cls-9 {
        letter-spacing: -.01em;
      }

      .cls-10 {
        font-family: InterTight-SemiBold, 'Inter Tight';
      }

      .cls-11 {
        letter-spacing: -.02em;
      }

      .cls-12 {
        font-size: 12px;
      }

      .cls-2 {
        font-size: 24px;
      }

      .cls-13 {
        letter-spacing: -.02em;
      }

      .cls-14 {
        letter-spacing: -.02em;
      }

      .cls-15 {
        letter-spacing: .01em;
      }

      .cls-16 {
        letter-spacing: -.02em;
      }
    </style>
    <filter id="drop-shadow-1" filterUnits="userSpaceOnUse">
      <feOffset dx="-3" dy="3"/>
      <feGaussianBlur result="blur" stdDeviation="3"/>
      <feFlood flood-color="#000" flood-opacity=".2"/>
      <feComposite in2="blur" operator="in"/>
      <feComposite in="SourceGraphic"/>
    </filter>
  </defs>
  <g id="Ebene_3" data-name="Ebene 3">
    <g class="cls-6">
      <rect class="cls-8" width="500" height="300" rx="24" ry="24"/>
      <g>
        <path class="cls-1" d="M263.53,98.42v4.22c0,3.88-6.72,7.03-15,7.03s-15-3.15-15-7.03v-4.22c0-3.88,6.72-7.03,15-7.03s15,3.15,15,7.03Zm-3.67,11.84c1.39-.65,2.67-1.49,3.67-2.51v8.96c0,3.88-6.72,7.03-15,7.03s-15-3.15-15-7.03v-8.96c1,1.04,2.28,1.86,3.67,2.51,3.01,1.41,7.01,2.22,11.33,2.22s8.32-.82,11.33-2.22Zm-26.33,11.55c1,1.04,2.28,1.86,3.67,2.51,3.01,1.41,7.01,2.22,11.33,2.22s8.32-.82,11.33-2.22c1.39-.65,2.67-1.49,3.67-2.51v7.55c0,3.88-6.72,7.03-15,7.03s-15-3.15-15-7.03v-7.55Z"/>
        <g>
          <path class="cls-1" d="M177.54,104.14c4.48,0,8.11-3.61,8.11-8.06s-3.63-8.06-8.11-8.06-8.11,3.61-8.11,8.06,3.63,8.06,8.11,8.06Zm-2.89,3.02c-6.24,0-11.29,5.03-11.29,11.23,0,1.03,.84,1.87,1.88,1.87h24.62c1.04,0,1.88-.84,1.88-1.87,0-6.2-5.05-11.23-11.29-11.23h-5.79Z"/>
          <path class="cls-1" d="M319.53,104.31c4.48,0,8.11-3.61,8.11-8.06s-3.63-8.06-8.11-8.06-8.11,3.61-8.11,8.06,3.63,8.06,8.11,8.06Zm-2.89,3.02c-6.24,0-11.29,5.03-11.29,11.23,0,1.03,.84,1.87,1.88,1.87h24.62c1.04,0,1.88-.84,1.88-1.87,0-6.2-5.05-11.23-11.29-11.23h-5.79Z"/>
          <rect class="cls-1" x="281.39" y="106.49" width="1.95" height="25.95" rx=".97" ry=".97" transform="translate(401.83 -162.9) rotate(90)"/>
          <rect class="cls-1" x="213.73" y="105.52" width="1.95" height="25.95" rx=".97" ry=".97" transform="translate(333.19 -96.21) rotate(90)"/>
          <rect class="cls-1" x="247.64" y="62.25" width="1.95" height="25.95" rx=".97" ry=".97"/>
          <path class="cls-1" d="M248.62,36.12c4.48,0,8.11-3.61,8.11-8.06s-3.63-8.06-8.11-8.06-8.11,3.61-8.11,8.06,3.63,8.06,8.11,8.06Zm-2.89,3.02c-6.24,0-11.29,5.03-11.29,11.23,0,1.03,.84,1.87,1.88,1.87h24.62c1.04,0,1.88-.84,1.88-1.87,0-6.2-5.05-11.23-11.29-11.23h-5.79Z"/>
        </g>
      </g>
      <text class="cls-10" transform="translate(210.91 184.92)"><tspan class="cls-2"><tspan x="0" y="0">Classic</tspan></tspan><tspan class="cls-12"><tspan class="cls-4" x="-78.97" y="14.4">T</tspan><tspan class="cls-9" x="-72.18" y="14.4">r</tspan><tspan x="-68" y="14.4">aditional apps </tspan><tspan class="cls-3" x="9.61" y="14.4">r</tspan><tspan x="13.66" y="14.4">ely on cent</tspan><tspan class="cls-9" x="72.35" y="14.4">r</tspan><tspan x="76.54" y="14.4">ali</tspan><tspan class="cls-11" x="88.38" y="14.4">z</tspan><tspan x="94.49" y="14.4">ed se</tspan><tspan class="cls-7" x="123.46" y="14.4">r</tspan><tspan class="cls-13" x="127.97" y="14.4">v</tspan><tspan x="134.21" y="14.4">ers</tspan><tspan class="cls-3" x="151.3" y="14.4">,</tspan><tspan x="154.59" y="14.4" xml:space="preserve"> </tspan></tspan><tspan class="cls-12"><tspan x="-138.44" y="28.8">whe</tspan><tspan class="cls-3" x="-115.28" y="28.8">r</tspan><tspan x="-111.24" y="28.8">e all </tspan><tspan class="cls-13" x="-87.7" y="28.8">y</tspan><tspan x="-81.46" y="28.8">our data is s</tspan><tspan class="cls-5" x="-16.81" y="28.8">t</tspan><tspan x="-12.76" y="28.8">o</tspan><tspan class="cls-3" x="-5.92" y="28.8">r</tspan><tspan x="-1.87" y="28.8">ed</tspan><tspan class="cls-3" x="11.8" y="28.8">.</tspan><tspan x="14.92" y="28.8" xml:space="preserve"> Sensiti</tspan><tspan class="cls-13" x="53.91" y="28.8">v</tspan><tspan x="60.15" y="28.8">e in</tspan><tspan class="cls-14" x="78.88" y="28.8">f</tspan><tspan x="82.74" y="28.8">ormations can be lea</tspan><tspan class="cls-3" x="194.29" y="28.8">k</tspan><tspan x="200.39" y="28.8">ed </tspan></tspan><tspan class="cls-12"><tspan class="cls-15" x="-140.06" y="43.2">t</tspan><tspan x="-135.81" y="43.2">h</tspan><tspan class="cls-3" x="-128.89" y="43.2">r</tspan><tspan x="-124.84" y="43.2">ough </tspan><tspan class="cls-13" x="-94.65" y="43.2">c</tspan><tspan x="-88.38" y="43.2">ybe</tspan><tspan class="cls-16" x="-68.25" y="43.2">r</tspan><tspan x="-64.22" y="43.2">-attacks and unau</tspan><tspan class="cls-15" x="33.62" y="43.2">t</tspan><tspan x="37.87" y="43.2">hori</tspan><tspan class="cls-11" x="58.63" y="43.2">z</tspan><tspan x="64.74" y="43.2">ed entities might get access </tspan></tspan><tspan class="cls-12"><tspan class="cls-5" x="-38.31" y="57.6">t</tspan><tspan x="-34.26" y="57.6">o </tspan><tspan class="cls-13" x="-24.88" y="57.6">y</tspan><tspan x="-18.64" y="57.6">our personal in</tspan><tspan class="cls-14" x="60.99" y="57.6">f</tspan><tspan x="64.85" y="57.6">ormation</tspan><tspan class="cls-3" x="113.34" y="57.6">.</tspan></tspan></text>
    </g>
  </g>
</svg>