<?xml version="1.0" encoding="UTF-8"?>
<svg id="Ebene_2" data-name="Ebene 2" xmlns="http://www.w3.org/2000/svg" xmlns:xlink="http://www.w3.org/1999/xlink" viewBox="0 0 900 765">
  <defs>
    <style>
      .cls-1 {
        fill: #ddd;
      }

      .cls-2 {
        fill: #f4f4f4;
      }

      .cls-3 {
        fill: #fff;
      }

      .cls-4, .cls-5, .cls-6 {
        fill: #e2e2e2;
      }

      .cls-5 {
        filter: url(#drop-shadow-3);
      }

      .cls-7 {
        filter: url(#drop-shadow-1);
      }

      .cls-8 {
        fill: #ff3b3b;
      }

      .cls-9 {
        fill: #bcbcbc;
      }

      .cls-10 {
        fill: #ffcc73;
      }

      .cls-11 {
        fill: #43c979;
      }

      .cls-6 {
        filter: url(#drop-shadow-2);
      }
    </style>
    <filter id="drop-shadow-1" filterUnits="userSpaceOnUse">
      <feOffset dx="-3" dy="3"/>
      <feGaussianBlur result="blur" stdDeviation="5"/>
      <feFlood flood-color="#000" flood-opacity=".2"/>
      <feComposite in2="blur" operator="in"/>
      <feComposite in="SourceGraphic"/>
    </filter>
    <filter id="drop-shadow-2" filterUnits="userSpaceOnUse">
      <feOffset dx="-3" dy="3"/>
      <feGaussianBlur result="blur-2" stdDeviation="5"/>
      <feFlood flood-color="#000" flood-opacity=".2"/>
      <feComposite in2="blur-2" operator="in"/>
      <feComposite in="SourceGraphic"/>
    </filter>
    <filter id="drop-shadow-3" filterUnits="userSpaceOnUse">
      <feOffset dx="-3" dy="3"/>
      <feGaussianBlur result="blur-3" stdDeviation="5"/>
      <feFlood flood-color="#000" flood-opacity=".2"/>
      <feComposite in2="blur-3" operator="in"/>
      <feComposite in="SourceGraphic"/>
    </filter>
  </defs>
  <g id="Ebene_2-2" data-name="Ebene 2">
    <g id="base">
      <path class="cls-1" d="M900,30v16H0V30C0,13.43,13.43,0,30,0H870c16.57,0,30,13.43,30,30Z"/>
      <path class="cls-2" d="M900,46V570c0,13.06-8.34,24.17-20,28.28-3.13,1.12-6.49,1.72-10,1.72H30c-16.57,0-30-13.43-30-30V46H900Z"/>
      <circle class="cls-8" cx="870" cy="23" r="10"/>
      <circle class="cls-10" cx="845" cy="23" r="10"/>
      <circle class="cls-11" cx="820" cy="23" r="10"/>
    </g>
    <rect class="cls-11" x="730" y="66" width="150" height="30" rx="7.56" ry="7.56"/>
    <g>
      <path class="cls-3" d="M772.3,80.4l-1.63,.17c-.07-.25-.22-.47-.44-.67s-.55-.29-.96-.29c-.37,0-.69,.08-.94,.25-.25,.16-.38,.37-.38,.63,0,.22,.08,.41,.25,.55,.17,.14,.44,.26,.83,.35l1.31,.27c.72,.15,1.25,.4,1.61,.74s.53,.78,.53,1.33c0,.48-.14,.9-.42,1.27s-.66,.66-1.15,.86c-.49,.21-1.05,.31-1.69,.31-.93,0-1.69-.2-2.25-.59-.57-.39-.91-.94-1.02-1.64l1.76-.16c.08,.34,.25,.6,.51,.78,.26,.18,.6,.26,1.01,.26s.77-.09,1.03-.26,.39-.39,.39-.65c0-.43-.34-.72-1.03-.88l-1.31-.27c-.73-.16-1.28-.42-1.63-.78s-.53-.81-.53-1.37c0-.47,.13-.88,.39-1.23s.62-.62,1.09-.81,1-.29,1.61-.29c.9,0,1.6,.19,2.12,.58,.51,.39,.83,.9,.95,1.55Z"/>
      <path class="cls-3" d="M776.81,86.16c-.77,0-1.43-.16-1.98-.48s-.98-.78-1.28-1.36c-.3-.59-.45-1.28-.45-2.08s.15-1.48,.44-2.07,.71-1.06,1.25-1.39,1.17-.5,1.9-.5c.47,0,.92,.08,1.34,.23,.42,.15,.79,.38,1.12,.7,.33,.31,.58,.71,.77,1.2s.28,1.06,.28,1.73v.56h-6.26v-1.21h5.37l-.84,.36c0-.43-.07-.81-.2-1.13s-.33-.57-.59-.76-.58-.27-.97-.27-.72,.09-.99,.27-.48,.43-.62,.73-.21,.65-.21,1.03v.84c0,.46,.08,.86,.24,1.19,.16,.33,.39,.58,.68,.76,.29,.17,.64,.26,1.03,.26,.25,0,.49-.04,.7-.11,.21-.07,.39-.18,.55-.33,.15-.15,.27-.33,.35-.55l1.68,.2c-.11,.44-.31,.83-.61,1.16-.29,.33-.67,.59-1.13,.77-.46,.18-.98,.27-1.58,.27Z"/>
      <path class="cls-3" d="M782.97,75.83v10.19h-1.8v-10.19h1.8Z"/>
      <path class="cls-3" d="M787.68,86.16c-.77,0-1.43-.16-1.98-.48s-.98-.78-1.28-1.36c-.3-.59-.45-1.28-.45-2.08s.15-1.48,.44-2.07,.71-1.06,1.25-1.39,1.17-.5,1.9-.5c.47,0,.92,.08,1.34,.23,.42,.15,.79,.38,1.12,.7,.33,.31,.58,.71,.77,1.2s.28,1.06,.28,1.73v.56h-6.26v-1.21h5.37l-.84,.36c0-.43-.07-.81-.2-1.13s-.33-.57-.59-.76-.58-.27-.97-.27-.72,.09-.99,.27-.48,.43-.62,.73-.21,.65-.21,1.03v.84c0,.46,.08,.86,.24,1.19,.16,.33,.39,.58,.68,.76,.29,.17,.64,.26,1.03,.26,.25,0,.49-.04,.7-.11,.21-.07,.39-.18,.55-.33,.15-.15,.27-.33,.35-.55l1.68,.2c-.11,.44-.31,.83-.61,1.16-.29,.33-.67,.59-1.13,.77-.46,.18-.98,.27-1.58,.27Z"/>
      <path class="cls-3" d="M795.37,86.16c-.76,0-1.42-.17-1.96-.5s-.97-.8-1.26-1.39-.44-1.27-.44-2.04,.15-1.47,.44-2.06,.72-1.06,1.26-1.39,1.19-.5,1.93-.5c.62,0,1.18,.11,1.65,.34s.86,.55,1.14,.96c.29,.41,.45,.89,.49,1.45h-1.72c-.05-.25-.13-.47-.27-.66s-.3-.35-.52-.46c-.21-.11-.46-.17-.76-.17-.37,0-.69,.1-.97,.3-.28,.2-.49,.48-.65,.85s-.23,.81-.23,1.33,.08,.97,.23,1.34,.36,.67,.64,.87,.6,.3,.98,.3c.4,0,.73-.12,1.01-.35,.28-.23,.45-.55,.53-.96h1.72c-.04,.54-.2,1.02-.48,1.44s-.65,.74-1.13,.97-1.03,.35-1.67,.35Z"/>
      <path class="cls-3" d="M803.42,78.37v1.39h-4.38v-1.39h4.38Zm-3.31-1.82h1.8v7.16c0,.3,.07,.52,.2,.67s.34,.22,.63,.22c.08,0,.16,0,.26-.02s.18-.03,.26-.05l.31,1.41c-.19,.06-.38,.1-.58,.13s-.39,.04-.59,.04c-.71,0-1.27-.19-1.67-.56s-.61-.89-.61-1.54v-7.46Z"/>
      <path class="cls-3" d="M808.95,86.01l-2.16-7.64h1.83l1.35,5.37h.07l1.37-5.37h1.81l1.37,5.35h.07l1.33-5.35h1.84l-2.16,7.64h-1.88l-1.44-5.16h-.1l-1.44,5.16h-1.87Z"/>
      <path class="cls-3" d="M820.77,86.17c-.49,0-.92-.09-1.31-.26s-.69-.43-.92-.78-.33-.76-.33-1.26c0-.43,.08-.78,.24-1.07s.38-.51,.65-.68c.28-.17,.59-.3,.93-.39s.7-.15,1.07-.19c.45-.05,.82-.09,1.09-.13s.48-.1,.61-.18c.12-.08,.19-.21,.19-.38v-.03c0-.37-.11-.66-.33-.86s-.54-.31-.96-.31c-.44,0-.79,.1-1.05,.29-.26,.19-.43,.42-.52,.68l-1.67-.24c.13-.46,.35-.85,.66-1.17s.68-.55,1.12-.7c.44-.16,.93-.24,1.46-.24,.36,0,.73,.04,1.09,.13s.7,.23,1,.43,.55,.47,.73,.81,.27,.76,.27,1.26v5.11h-1.73v-1.05h-.05c-.11,.21-.26,.41-.46,.59-.2,.18-.44,.33-.74,.45-.29,.11-.64,.17-1.04,.17Zm.46-1.33c.36,0,.68-.07,.94-.22s.47-.33,.62-.57,.22-.5,.22-.78v-.9c-.06,.05-.16,.09-.29,.13s-.28,.07-.45,.11-.33,.06-.5,.08c-.16,.02-.3,.04-.42,.05-.27,.04-.51,.1-.72,.18-.21,.08-.38,.2-.5,.35s-.18,.33-.18,.57c0,.33,.12,.58,.36,.75s.55,.25,.92,.25Z"/>
      <path class="cls-3" d="M827.92,75.83v10.19h-1.8v-10.19h1.8Z"/>
      <path class="cls-3" d="M831.05,75.83v10.19h-1.8v-10.19h1.8Z"/>
      <path class="cls-3" d="M835.76,86.16c-.77,0-1.43-.16-1.98-.48s-.98-.78-1.28-1.36c-.3-.59-.45-1.28-.45-2.08s.15-1.48,.44-2.07,.71-1.06,1.25-1.39,1.17-.5,1.9-.5c.47,0,.92,.08,1.34,.23,.42,.15,.79,.38,1.12,.7,.33,.31,.58,.71,.77,1.2s.28,1.06,.28,1.73v.56h-6.26v-1.21h5.37l-.84,.36c0-.43-.07-.81-.2-1.13s-.33-.57-.59-.76-.58-.27-.97-.27-.72,.09-.99,.27-.48,.43-.62,.73-.21,.65-.21,1.03v.84c0,.46,.08,.86,.24,1.19,.16,.33,.39,.58,.68,.76,.29,.17,.64,.26,1.03,.26,.25,0,.49-.04,.7-.11,.21-.07,.39-.18,.55-.33,.15-.15,.27-.33,.35-.55l1.68,.2c-.11,.44-.31,.83-.61,1.16-.29,.33-.67,.59-1.13,.77-.46,.18-.98,.27-1.58,.27Z"/>
      <path class="cls-3" d="M843.93,78.37v1.39h-4.38v-1.39h4.38Zm-3.31-1.82h1.8v7.16c0,.3,.07,.52,.2,.67s.34,.22,.63,.22c.08,0,.16,0,.26-.02s.18-.03,.26-.05l.31,1.41c-.19,.06-.38,.1-.58,.13s-.39,.04-.59,.04c-.71,0-1.27-.19-1.67-.56s-.61-.89-.61-1.54v-7.46Z"/>
    </g>
    <path class="cls-11" d="M46.97,73.31c-.14-1.18-1.84-2.23-4.47-2.97-2.04-.57-4.63-.95-7.5-1.05-.5-.02-1-.03-1.51-.03-2.15,0-4.18,.16-5.99,.44-4.45,.69-7.5,2.11-7.5,3.76,0,7.57,3.05,14.12,7.5,17.27,1.81,1.28,3.84,2,5.99,2,.51,0,1.01-.04,1.51-.12,2.87-.45,5.46-2.19,7.5-4.81,1.27-1.63,2.32-3.6,3.09-5.81,.35,.18,.74,.27,1.13,.27,1.81,0,3.28-2.01,3.28-4.49s-1.33-4.3-3.03-4.48Zm-.25,7.18c-.22,0-.42-.07-.61-.19,.43-1.63,.72-3.37,.82-5.19,.82,.17,1.45,1.3,1.45,2.68,0,1.49-.74,2.7-1.66,2.7Z"/>
    <g class="cls-7">
      <rect class="cls-4" x="730" y="106" width="150" height="570" rx="15" ry="15"/>
      <g>
        <rect class="cls-9" x="740" y="116" width="130" height="60" rx="9" ry="9"/>
        <rect class="cls-9" x="740" y="186" width="130" height="60" rx="9" ry="9"/>
        <rect class="cls-9" x="740" y="256" width="130" height="60" rx="9" ry="9"/>
        <rect class="cls-9" x="740" y="326" width="130" height="60" rx="9" ry="9"/>
        <rect class="cls-9" x="740" y="396" width="130" height="60" rx="9" ry="9"/>
        <rect class="cls-9" x="740" y="466" width="130" height="60" rx="9" ry="9"/>
        <rect class="cls-9" x="740" y="536" width="130" height="60" rx="9" ry="9"/>
        <rect class="cls-9" x="740" y="606" width="130" height="60" rx="9" ry="9"/>
      </g>
    </g>
    <g>
      <rect class="cls-6" x="20" y="106" width="700" height="210" rx="16" ry="16"/>
      <rect class="cls-9" x="29.86" y="116" width="680.28" height="60" rx="9" ry="9"/>
      <rect class="cls-9" x="29.86" y="186" width="335.21" height="120" rx="9" ry="9"/>
      <rect class="cls-9" x="374.93" y="186" width="335.21" height="120" rx="9" ry="9"/>
    </g>
    <g>
      <rect class="cls-5" x="20" y="325.38" width="700" height="421.25" rx="16" ry="16"/>
      <g>
        <rect class="cls-9" x="582.5" y="335.38" width="127.5" height="127.5" rx="9" ry="9"/>
        <rect class="cls-9" x="444.38" y="335.38" width="127.5" height="127.5" rx="9" ry="9"/>
        <rect class="cls-9" x="306.25" y="335.38" width="127.5" height="127.5" rx="9" ry="9"/>
        <rect class="cls-9" x="168.12" y="335.38" width="127.5" height="127.5" rx="9" ry="9"/>
        <rect class="cls-9" x="30" y="335.38" width="127.5" height="127.5" rx="9" ry="9"/>
        <rect class="cls-9" x="30" y="471.62" width="127.5" height="127.5" rx="9" ry="9"/>
        <rect class="cls-9" x="168.12" y="471.62" width="127.5" height="127.5" rx="9" ry="9"/>
        <rect class="cls-9" x="306.25" y="471.62" width="127.5" height="127.5" rx="9" ry="9"/>
        <rect class="cls-9" x="444.38" y="471.62" width="127.5" height="127.5" rx="9" ry="9"/>
        <rect class="cls-9" x="582.5" y="471.62" width="127.5" height="127.5" rx="9" ry="9"/>
        <g>
          <rect class="cls-9" x="30" y="609.12" width="127.5" height="127.5" rx="9" ry="9"/>
          <rect class="cls-9" x="168.12" y="609.12" width="127.5" height="127.5" rx="9" ry="9"/>
          <rect class="cls-9" x="306.25" y="609.12" width="127.5" height="127.5" rx="9" ry="9"/>
          <rect class="cls-9" x="444.38" y="609.12" width="127.5" height="127.5" rx="9" ry="9"/>
          <rect class="cls-9" x="582.5" y="609.12" width="127.5" height="127.5" rx="9" ry="9"/>
        </g>
      </g>
    </g>
  </g>
</svg>