<svg width="149" height="30" viewBox="0 0 149 30" fill="none" xmlns="http://www.w3.org/2000/svg">
<path d="M27.6127 24.6014V5.98303H35.4459C36.7224 5.98303 37.8166 6.19962 38.7284 6.63281C39.6402 7.06598 40.3365 7.69076 40.8172 8.50714C41.2981 9.30685 41.5384 10.2815 41.5384 11.4311C41.5384 12.2475 41.3146 13.0305 40.867 13.7803C40.4194 14.5133 39.6817 15.1298 38.6538 15.6296V13.7303C39.6319 14.1135 40.3863 14.5717 40.9167 15.1048C41.4472 15.6379 41.8119 16.2211 42.0109 16.8542C42.2099 17.4706 42.3093 18.1204 42.3093 18.8035C42.3093 20.6362 41.7042 22.0607 40.494 23.077C39.2837 24.0932 37.6011 24.6014 35.4459 24.6014H27.6127ZM31.4671 21.2277H35.8935C36.6727 21.2277 37.2944 21.0027 37.7586 20.5529C38.2228 20.103 38.4549 19.5199 38.4549 18.8035C38.4549 18.0704 38.2228 17.479 37.7586 17.0291C37.2944 16.5793 36.6727 16.3543 35.8935 16.3543H31.4671V21.2277ZM31.4671 12.9805H35.7195C36.3163 12.9805 36.7888 12.8139 37.1369 12.4807C37.5016 12.1308 37.684 11.6727 37.684 11.1062C37.684 10.5397 37.5016 10.0899 37.1369 9.75669C36.7888 9.40682 36.3163 9.23188 35.7195 9.23188H31.4671V12.9805Z" fill="white"/>
<path d="M48.7103 24.9022C47.7322 24.9022 46.8867 24.7438 46.1738 24.4273C45.461 24.1108 44.9139 23.6609 44.5326 23.0778C44.1513 22.478 43.9607 21.77 43.9607 20.9536C43.9607 20.1872 44.1347 19.5124 44.4829 18.9293C44.831 18.3294 45.3615 17.8296 46.0744 17.4298C46.8038 17.0299 47.7073 16.7467 48.785 16.5801L52.9378 15.9053V18.6544L49.4563 19.2792C48.9258 19.3791 48.5196 19.554 48.2379 19.8039C47.956 20.0372 47.815 20.3787 47.815 20.8286C47.815 21.2451 47.9725 21.57 48.2875 21.8032C48.6026 22.0365 48.9922 22.1531 49.4563 22.1531C50.0697 22.1531 50.6085 22.0198 51.0727 21.7532C51.5369 21.4867 51.8934 21.1285 52.142 20.6786C52.4072 20.2122 52.5399 19.7039 52.5399 19.1542V15.6055C52.5399 15.089 52.3327 14.6558 51.9182 14.3059C51.5203 13.9561 50.9732 13.7811 50.277 13.7811C49.6138 13.7811 49.0253 13.9643 48.5114 14.3309C48.014 14.6974 47.6493 15.1806 47.4172 15.7804L44.4331 14.3558C44.6984 13.5894 45.1211 12.9314 45.7013 12.3816C46.2816 11.8318 46.9778 11.4069 47.7902 11.107C48.6026 10.8071 49.4895 10.6572 50.451 10.6572C51.5949 10.6572 52.6062 10.8655 53.4849 11.282C54.3634 11.6985 55.0432 12.2816 55.524 13.0313C56.0213 13.7644 56.2699 14.6224 56.2699 15.6055V24.6023H52.7886V22.403L53.634 22.2531C53.2362 22.8529 52.7968 23.3526 52.3161 23.7525C51.8354 24.1358 51.2965 24.4189 50.6997 24.6023C50.1029 24.8022 49.4398 24.9022 48.7103 24.9022Z" fill="white"/>
<path d="M65.6691 24.9022C64.3097 24.9022 63.0829 24.5939 61.9887 23.9774C60.9112 23.3444 60.0491 22.4864 59.4025 21.4033C58.7726 20.3204 58.4576 19.1042 58.4576 17.7546C58.4576 16.4051 58.7726 15.1972 59.4025 14.1309C60.0325 13.048 60.8945 12.1983 61.9887 11.5819C63.0829 10.9654 64.3097 10.6572 65.6691 10.6572C66.6804 10.6572 67.6171 10.8321 68.4791 11.182C69.3412 11.5319 70.0789 12.0234 70.6923 12.6565C71.3058 13.2729 71.745 14.0059 72.0104 14.8557L68.7776 16.2552C68.5455 15.5721 68.1475 15.0306 67.5839 14.6308C67.0369 14.2309 66.3985 14.0309 65.6691 14.0309C65.0226 14.0309 64.4423 14.1893 63.9284 14.5058C63.4311 14.8223 63.0331 15.2638 62.7348 15.8303C62.4529 16.3969 62.3121 17.0466 62.3121 17.7796C62.3121 18.5128 62.4529 19.1625 62.7348 19.7289C63.0331 20.2954 63.4311 20.7369 63.9284 21.0535C64.4423 21.3701 65.0226 21.5283 65.6691 21.5283C66.4151 21.5283 67.0617 21.3283 67.6088 20.9286C68.1559 20.5287 68.5455 19.9872 68.7776 19.3042L72.0104 20.7286C71.7616 21.5283 71.3306 22.2447 70.7172 22.8779C70.1038 23.511 69.3661 24.0108 68.504 24.3773C67.6419 24.7272 66.697 24.9022 65.6691 24.9022Z" fill="white"/>
<path d="M74.2086 24.6015V5.6832H77.9387V17.8038L76.5461 17.3541L82.5392 10.9563H87.1396L82.2159 16.4543L87.1147 24.6015H82.8873L78.7842 17.6789L80.9477 17.1291L76.7948 21.6775L77.9387 19.5032V24.6015H74.2086Z" fill="white"/>
<path d="M88.779 29.6004V10.9571H92.2605V13.5562L91.9371 12.8064C92.3847 12.1233 92.9899 11.5985 93.7525 11.232C94.5317 10.8488 95.4186 10.6572 96.4133 10.6572C97.7063 10.6572 98.8751 10.9738 99.9196 11.6069C100.964 12.24 101.793 13.098 102.406 14.1809C103.02 15.2472 103.326 16.4467 103.326 17.7796C103.326 19.0958 103.02 20.2954 102.406 21.3783C101.81 22.4614 100.989 23.3194 99.9444 23.9524C98.9 24.5855 97.7147 24.9022 96.3884 24.9022C95.46 24.9022 94.5979 24.7355 93.8022 24.4023C93.023 24.0524 92.3931 23.5443 91.9123 22.8779L92.5091 22.1031V29.6004H88.779ZM95.9408 21.5283C96.637 21.5283 97.2505 21.3701 97.781 21.0535C98.3115 20.7369 98.726 20.2954 99.0244 19.7289C99.3227 19.1625 99.472 18.5128 99.472 17.7796C99.472 17.0466 99.3227 16.4051 99.0244 15.8553C98.726 15.2888 98.3115 14.8473 97.781 14.5308C97.2505 14.1976 96.637 14.0309 95.9408 14.0309C95.2776 14.0309 94.6808 14.1893 94.1503 14.5058C93.6364 14.8223 93.2303 15.2638 92.9318 15.8303C92.6501 16.3969 92.5091 17.0466 92.5091 17.7796C92.5091 18.5128 92.6501 19.1625 92.9318 19.7289C93.2303 20.2954 93.6364 20.7369 94.1503 21.0535C94.6808 21.3701 95.2776 21.5283 95.9408 21.5283Z" fill="white"/>
<path d="M109.713 24.902C108.734 24.902 107.889 24.7437 107.176 24.4272C106.463 24.1106 105.916 23.6608 105.535 23.0777C105.153 22.4778 104.963 21.7698 104.963 20.9534C104.963 20.187 105.137 19.5122 105.485 18.9291C105.833 18.3293 106.364 17.8294 107.077 17.4297C107.806 17.0298 108.71 16.7465 109.787 16.5799L113.94 15.9051V18.6542L110.459 19.279C109.928 19.379 109.522 19.5538 109.24 19.8037C108.958 20.0371 108.817 20.3786 108.817 20.8284C108.817 21.245 108.975 21.5699 109.29 21.803C109.605 22.0363 109.994 22.1529 110.459 22.1529C111.072 22.1529 111.611 22.0196 112.075 21.7531C112.539 21.4865 112.896 21.1284 113.144 20.6785C113.41 20.212 113.542 19.7038 113.542 19.1541V15.6053C113.542 15.0889 113.335 14.6556 112.92 14.3057C112.523 13.9559 111.975 13.781 111.279 13.781C110.616 13.781 110.028 13.9642 109.514 14.3307C109.016 14.6972 108.651 15.1805 108.419 15.7803L105.435 14.3557C105.701 13.5893 106.123 12.9312 106.704 12.3814C107.284 11.8316 107.98 11.4068 108.792 11.1069C109.605 10.807 110.492 10.657 111.453 10.657C112.597 10.657 113.608 10.8653 114.487 11.2818C115.366 11.6983 116.045 12.2815 116.526 13.0312C117.024 13.7642 117.272 14.6222 117.272 15.6053V24.6021H113.791V22.4029L114.636 22.2529C114.238 22.8527 113.799 23.3525 113.318 23.7524C112.838 24.1356 112.299 24.4188 111.702 24.6021C111.105 24.802 110.442 24.902 109.713 24.902Z" fill="white"/>
<path d="M126.672 24.902C125.314 24.902 124.087 24.5937 122.993 23.9773C121.915 23.3442 121.053 22.4862 120.406 21.4032C119.776 20.3202 119.461 19.1041 119.461 17.7545C119.461 16.405 119.776 15.1971 120.406 14.1308C121.036 13.0478 121.899 12.1982 122.993 11.5817C124.087 10.9653 125.314 10.657 126.672 10.657C127.684 10.657 128.62 10.832 129.482 11.1819C130.345 11.5317 131.082 12.0232 131.696 12.6563C132.309 13.2728 132.748 14.0058 133.014 14.8555L129.781 16.255C129.549 15.572 129.151 15.0305 128.588 14.6306C128.04 14.2307 127.402 14.0308 126.672 14.0308C126.026 14.0308 125.447 14.1891 124.932 14.5056C124.435 14.8222 124.037 15.2637 123.739 15.8301C123.457 16.3967 123.316 17.0464 123.316 17.7795C123.316 18.5126 123.457 19.1623 123.739 19.7288C124.037 20.2952 124.435 20.7367 124.932 21.0534C125.447 21.3699 126.026 21.5281 126.672 21.5281C127.418 21.5281 128.065 21.3282 128.613 20.9284C129.16 20.5285 129.549 19.9871 129.781 19.304L133.014 20.7285C132.765 21.5281 132.334 22.2445 131.721 22.8777C131.107 23.5108 130.37 24.0107 129.507 24.3772C128.645 24.7271 127.701 24.902 126.672 24.902Z" fill="white"/>
<path d="M135.21 24.6015V5.6832H138.94V17.8038L137.548 17.3541L143.541 10.9563H148.141L143.217 16.4543L148.116 24.6015H143.889L139.785 17.6789L141.949 17.1291L137.796 21.6775L138.94 19.5032V24.6015H135.21Z" fill="white"/>
<mask id="mask0_4_37" style="mask-type:luminance" maskUnits="userSpaceOnUse" x="0" y="0" width="18" height="27">
<path d="M17.6717 0.899536H0.407104V26.0118H17.6717V0.899536Z" fill="white"/>
</mask>
<g mask="url(#mask0_4_37)">
<path fill-rule="evenodd" clip-rule="evenodd" d="M10.6749 2.87407C11.5876 2.87407 12.4437 2.99643 13.2364 3.22336C12.4603 1.4146 10.849 0.899536 9.0557 0.899536C7.25887 0.899536 5.64471 1.41663 4.8704 3.23401C5.65727 2.9991 6.50973 2.87407 7.41936 2.87407H10.6749ZM7.21059 4.68999C2.8765 4.68999 0.407104 8.09959 0.407104 12.3056V16.6261C0.407104 17.0467 0.758451 17.3794 1.19186 17.3794H16.8869C17.3204 17.3794 17.6717 17.0467 17.6717 16.6261V12.3056C17.6717 8.09959 14.8002 4.68999 10.4661 4.68999H7.21059ZM9.03327 12.3429C10.5502 12.3429 11.7799 11.1132 11.7799 9.59626C11.7799 8.07932 10.5502 6.84961 9.03327 6.84961C7.51634 6.84961 6.28664 8.07932 6.28664 9.59626C6.28664 11.1132 7.51634 12.3429 9.03327 12.3429ZM0.407104 19.919C0.407104 19.4984 0.758451 19.1575 1.19186 19.1575H16.8869C17.3204 19.1575 17.6717 19.4984 17.6717 19.919V24.4884C17.6717 25.3295 16.969 26.0115 16.1022 26.0115H1.97661C1.1098 26.0115 0.407104 25.3295 0.407104 24.4884V19.919Z" fill="#E33E3F"/>
</g>
</svg>
